<?xml version="1.0" encoding="UTF-8" standalone="no"?>
<!-- Created with Inkscape (http://www.inkscape.org/) -->

<svg
   width="73.654236mm"
   height="73.762619mm"
   viewBox="0 0 73.654236 73.762619"
   version="1.1"
   id="svg5"
   sodipodi:docname="my_emoji_white.svg"
   inkscape:version="1.2.1 (9c6d41e410, 2022-07-14)"
   xmlns:inkscape="http://www.inkscape.org/namespaces/inkscape"
   xmlns:sodipodi="http://sodipodi.sourceforge.net/DTD/sodipodi-0.dtd"
   xmlns="http://www.w3.org/2000/svg"
   xmlns:svg="http://www.w3.org/2000/svg">
  <sodipodi:namedview
     id="namedview7"
     pagecolor="#ffffff"
     bordercolor="#cccccc"
     borderopacity="1"
     inkscape:showpageshadow="0"
     inkscape:pageopacity="1"
     inkscape:pagecheckerboard="0"
     inkscape:deskcolor="#d1d1d1"
     inkscape:document-units="mm"
     showgrid="false"
     inkscape:zoom="1.087256"
     inkscape:cx="280.52271"
     inkscape:cy="183.94932"
     inkscape:window-width="1920"
     inkscape:window-height="1017"
     inkscape:window-x="-8"
     inkscape:window-y="-8"
     inkscape:window-maximized="1"
     inkscape:current-layer="layer1" />
  <defs
     id="defs2">
    <inkscape:path-effect
       effect="bspline"
       id="path-effect20751"
       is_visible="true"
       lpeversion="1"
       weight="33.333333"
       steps="2"
       helper_size="0"
       apply_no_weight="true"
       apply_with_weight="true"
       only_selected="false" />
    <inkscape:path-effect
       effect="spiro"
       id="path-effect17783"
       is_visible="true"
       lpeversion="1" />
    <inkscape:path-effect
       effect="spiro"
       id="path-effect5694"
       is_visible="true"
       lpeversion="1" />
    <inkscape:path-effect
       effect="bspline"
       id="path-effect20751-9"
       is_visible="true"
       lpeversion="1"
       weight="33.333333"
       steps="2"
       helper_size="0"
       apply_no_weight="true"
       apply_with_weight="true"
       only_selected="false" />
    <inkscape:path-effect
       effect="bspline"
       id="path-effect20751-9-6"
       is_visible="true"
       lpeversion="1"
       weight="33.333333"
       steps="2"
       helper_size="0"
       apply_no_weight="true"
       apply_with_weight="true"
       only_selected="false" />
    <inkscape:path-effect
       effect="bspline"
       id="path-effect20751-0"
       is_visible="true"
       lpeversion="1"
       weight="33.333333"
       steps="2"
       helper_size="0"
       apply_no_weight="true"
       apply_with_weight="true"
       only_selected="false" />
  </defs>
  <g
     inkscape:label="Capa 1"
     inkscape:groupmode="layer"
     id="layer1"
     transform="translate(-57.02015,-26.645812)">
    <path
       id="rect7881"
       style="fill:#fffb60;fill-opacity:1;stroke:#000000;stroke-width:1.756;stroke-linecap:round;stroke-linejoin:round;stroke-opacity:1"
       d="m 81.2276,31.980993 c -1.275451,0.01788 -2.54418,0.524136 -3.507796,1.515154 -1.927233,1.982034 -1.883333,5.129184 0.0987,7.056417 l 12.857099,12.501565 c -0.062,0.01585 -0.123676,0.03309 -0.185501,0.04963 L 70.665993,33.827413 c -1.982035,-1.927233 -5.129185,-1.882815 -7.056417,0.09922 -1.927233,1.982034 -1.882816,5.129184 0.09922,7.056417 l 18.065564,17.565853 c -0.119976,0.136297 -0.237398,0.275247 -0.353469,0.41496 L 66.364445,44.323928 c -1.982035,-1.927233 -5.129185,-1.882815 -7.056418,0.09922 -1.927233,1.982034 -1.883332,5.129184 0.0987,7.056417 l 17.620116,17.132807 c -0.0057,0.03358 -0.01201,0.06715 -0.01754,0.100803 l -7.031613,-6.83731 c -1.982034,-1.927233 -5.129184,-1.883332 -7.056417,0.0987 -1.927233,1.982034 -1.882816,5.129184 0.09922,7.056417 l 18.557526,18.044379 c 1.85362,2.629324 4.140203,4.961566 6.694682,6.923091 3.438859,2.64062 7.436633,4.659697 11.72383,5.306652 5.678054,0.856835 11.603754,-0.789508 16.317864,-4.068485 6.6977,-4.65869 10.9022,-12.438914 12.04113,-20.517614 0.81532,-5.783225 0.17364,-11.661885 0.28422,-17.501253 0.10646,-5.621676 0.91074,-11.209015 1.13068,-16.827401 0.0424,-1.08414 0.0616,-2.185778 -0.2129,-3.235456 -0.13725,-0.524845 -0.34843,-1.033106 -0.65216,-1.482598 -0.30373,-0.449496 -0.70238,-0.839146 -1.17564,-1.10433 -0.76469,-0.428481 -1.6962,-0.510251 -2.55127,-0.317293 -0.85505,0.192965 -1.63679,0.645321 -2.30218,1.215947 -0.95613,0.819948 -1.68569,1.881919 -2.22105,3.022039 -0.53536,1.140119 -0.88341,2.359798 -1.15394,3.58996 -0.54105,2.460324 -0.78638,5.005157 -1.70325,7.351491 -0.64913,1.661166 -1.63917,3.203794 -2.9683,4.393015 -1.32912,1.189222 -3.00592,2.012886 -4.778,2.214331 -0.66913,0.07607 -1.33936,0.0628 -2.00556,-0.01344 L 84.776278,33.397496 c -0.991017,-0.963616 -2.273169,-1.434331 -3.54862,-1.416451 z" />
    <path
       style="fill:none;fill-opacity:1;stroke:#ffffff;stroke-width:2.922;stroke-linecap:round;stroke-linejoin:round;stroke-dasharray:none;stroke-opacity:1"
       d="m 65.428251,83.316807 c 0.731769,1.263457 1.463413,2.526699 2.577589,3.239249 1.114176,0.712549 2.610728,0.874503 4.10714,1.036441"
       id="path20749"
       inkscape:path-effect="#path-effect20751"
       inkscape:original-d="m 65.428251,83.316807 c 0.731816,1.26343 1.463463,2.52667 2.194987,3.78982 1.496764,0.16211 2.993316,0.32406 4.489742,0.48587"
       sodipodi:nodetypes="ccc" />
    <path
       style="fill:none;fill-opacity:1;stroke:#ffffff;stroke-width:2.856;stroke-linecap:round;stroke-linejoin:round;stroke-dasharray:none;stroke-opacity:1"
       d="m 60.080872,85.626727 c 1.262057,2.237279 2.523911,4.474198 4.445499,5.735955 1.921589,1.261758 4.502649,1.548542 7.083471,1.8353"
       id="path20749-4"
       inkscape:path-effect="#path-effect20751-9"
       inkscape:original-d="m 60.080872,85.626727 c 1.262144,2.23723 2.523996,4.47415 3.785634,6.710885 2.581428,0.28706 5.162489,0.57384 7.743336,0.86037"
       sodipodi:nodetypes="ccc" />
    <path
       style="fill:none;fill-opacity:1;stroke:#ffffff;stroke-width:2.922;stroke-linecap:round;stroke-linejoin:round;stroke-dasharray:none;stroke-opacity:1"
       d="m 104.48954,38.420142 c -0.73177,-1.263459 -1.46341,-2.526697 -2.57759,-3.239247 -1.11417,-0.712551 -2.610722,-0.874504 -4.107137,-1.036443"
       id="path20749-6"
       inkscape:path-effect="#path-effect20751-0"
       inkscape:original-d="m 104.48954,38.420142 c -0.73182,-1.26343 -1.46346,-2.52667 -2.19499,-3.78982 -1.49676,-0.16211 -2.993308,-0.32406 -4.489737,-0.48587"
       sodipodi:nodetypes="ccc" />
    <path
       style="fill:none;fill-opacity:1;stroke:#ffffff;stroke-width:2.956;stroke-linecap:round;stroke-linejoin:round;stroke-dasharray:none;stroke-opacity:1"
       d="m 109.83692,36.798509 c -1.26206,-2.23728 -2.52392,-4.474197 -4.4455,-5.735952 -1.92159,-1.261755 -4.50266,-1.548541 -7.083467,-1.835298"
       id="path20749-4-5"
       inkscape:path-effect="#path-effect20751-9-6"
       inkscape:original-d="m 109.83692,36.798509 c -1.26215,-2.23723 -2.524,-4.47415 -3.78564,-6.71088 -2.58142,-0.28706 -5.16249,-0.57384 -7.743327,-0.86037"
       sodipodi:nodetypes="ccc" />
  </g>
</svg>
