<?xml version="1.0" encoding="UTF-8" standalone="no"?>
<!-- Created with Inkscape (http://www.inkscape.org/) -->

<svg
   width="73.654236mm"
   height="73.762619mm"
   viewBox="0 0 73.654236 73.762619"
   version="1.1"
   id="svg5"
   sodipodi:docname="saludo_emoticon.svg"
   inkscape:version="1.2.1 (9c6d41e410, 2022-07-14)"
   xmlns:inkscape="http://www.inkscape.org/namespaces/inkscape"
   xmlns:sodipodi="http://sodipodi.sourceforge.net/DTD/sodipodi-0.dtd"
   xmlns="http://www.w3.org/2000/svg"
   xmlns:svg="http://www.w3.org/2000/svg">
  <sodipodi:namedview
     id="namedview7"
     pagecolor="#ffffff"
     bordercolor="#cccccc"
     borderopacity="1"
     inkscape:showpageshadow="0"
     inkscape:pageopacity="1"
     inkscape:pagecheckerboard="0"
     inkscape:deskcolor="#d1d1d1"
     inkscape:document-units="mm"
     showgrid="false"
     inkscape:zoom="1.087256"
     inkscape:cx="280.5227"
     inkscape:cy="183.94931"
     inkscape:window-width="1920"
     inkscape:window-height="1017"
     inkscape:window-x="-8"
     inkscape:window-y="-8"
     inkscape:window-maximized="1"
     inkscape:current-layer="layer1" />
  <defs
     id="defs2">
    <inkscape:path-effect
       effect="bspline"
       id="path-effect20751"
       is_visible="true"
       lpeversion="1"
       weight="33.333333"
       steps="2"
       helper_size="0"
       apply_no_weight="true"
       apply_with_weight="true"
       only_selected="false" />
    <inkscape:path-effect
       effect="spiro"
       id="path-effect17783"
       is_visible="true"
       lpeversion="1" />
    <inkscape:path-effect
       effect="spiro"
       id="path-effect5694"
       is_visible="true"
       lpeversion="1" />
    <inkscape:path-effect
       effect="bspline"
       id="path-effect20751-9"
       is_visible="true"
       lpeversion="1"
       weight="33.333333"
       steps="2"
       helper_size="0"
       apply_no_weight="true"
       apply_with_weight="true"
       only_selected="false" />
    <inkscape:path-effect
       effect="bspline"
       id="path-effect20751-9-6"
       is_visible="true"
       lpeversion="1"
       weight="33.333333"
       steps="2"
       helper_size="0"
       apply_no_weight="true"
       apply_with_weight="true"
       only_selected="false" />
    <inkscape:path-effect
       effect="bspline"
       id="path-effect20751-0"
       is_visible="true"
       lpeversion="1"
       weight="33.333333"
       steps="2"
       helper_size="0"
       apply_no_weight="true"
       apply_with_weight="true"
       only_selected="false" />
  </defs>
  <g
     inkscape:label="Capa 1"
     inkscape:groupmode="layer"
     id="layer1"
     transform="translate(-57.02015,-26.645812)">
    <g
       id="g24449">
      <path
         id="rect7881"
         style="fill:#fffb60;fill-opacity:1;stroke:#000000;stroke-width:1.756;stroke-linecap:round;stroke-linejoin:round;stroke-opacity:1"
         d="m 80.530807,-33.697123 c -0.901969,0.901969 -1.458658,2.149392 -1.458658,3.531663 0,2.764541 2.225434,4.990282 4.989975,4.990282 l 17.933046,-3.4e-5 c -0.0334,0.05458 -0.0656,0.109944 -0.0984,0.164897 l -27.650908,-2.5e-4 c -2.764541,0 -4.989922,2.225805 -4.989922,4.990345 0,2.764541 2.225805,4.989922 4.990346,4.989922 l 25.197694,-1.54e-4 c 0.009,0.181356 0.02168,0.362834 0.03586,0.543917 l -21.000576,1.54e-4 c -2.764541,0 -4.989922,2.225805 -4.989922,4.9903457 0,2.7645408 2.225434,4.9902819 4.989975,4.9902819 l 24.576443,-9.24e-5 c 0.0193,0.028074 0.0382,0.056517 0.0577,0.084495 l -9.807772,-8.19e-5 c -2.764541,0 -4.990282,2.2254339 -4.990282,4.98997472 0,2.76454088 2.225804,4.98992168 4.990345,4.98992168 l 25.883999,-3.48e-5 c 3.16192,0.5928844 6.42715,0.6709466 9.62601,0.2964667 4.30633,-0.5041283 8.58008,-1.8435054 12.10479,-4.3683878 4.6682,-3.3440099 7.76891,-8.6553124 8.86283,-14.2925028 1.55421,-8.009177 -0.85517,-16.518268 -5.67049,-23.104256 -3.44709,-4.71466 -8.00531,-8.482024 -11.9968,-12.745643 -3.84269,-4.10467 -7.16114,-8.67119 -10.92018,-12.852608 -0.72538,-0.806834 -1.47958,-1.610051 -2.40816,-2.171237 -0.46428,-0.28061 -0.97001,-0.497786 -1.50112,-0.608311 -0.53111,-0.110532 -1.08856,-0.111979 -1.61273,0.02782 -0.84695,0.225887 -1.5718,0.816643 -2.05032,1.55107 -0.47851,0.734427 -0.72363,1.603716 -0.80288,2.476684 -0.11389,1.254404 0.10338,2.524379 0.51436,3.715 0.41098,1.190621 1.01172,2.3077 1.67534,3.378257 1.32725,2.141107 2.92543,4.136648 3.90377,6.458024 0.69265,1.643495 1.05825,3.43966 0.93437,5.218841 -0.12388,1.779181 -0.75186,3.538644 -1.88192,4.918434 -0.4267,0.521004 -0.91647,0.978727 -1.44725,1.388496 l -32.456862,-1.4e-5 c -1.38227,0 -2.629655,0.556343 -3.531624,1.458312 z"
         transform="rotate(44.196861)" />
      <path
         style="fill:none;fill-opacity:1;stroke:#000000;stroke-width:1.922;stroke-linecap:round;stroke-linejoin:round;stroke-dasharray:none;stroke-opacity:1"
         d="m 64.454853,86.480352 c 0.731769,1.263457 1.463413,2.526699 2.577589,3.239249 1.114176,0.712549 2.610728,0.874503 4.10714,1.036441"
         id="path20749"
         inkscape:path-effect="#path-effect20751"
         inkscape:original-d="m 64.454853,86.480352 c 0.731816,1.26343 1.463463,2.52667 2.194987,3.78982 1.496764,0.16211 2.993316,0.32406 4.489742,0.48587"
         sodipodi:nodetypes="ccc" />
      <path
         style="fill:none;fill-opacity:1;stroke:#000000;stroke-width:1.756;stroke-linecap:round;stroke-linejoin:round;stroke-opacity:1"
         d="m 59.107474,88.790272 c 1.262057,2.237279 2.523911,4.474198 4.445499,5.735955 1.921589,1.261758 4.502649,1.548542 7.083471,1.8353"
         id="path20749-4"
         inkscape:path-effect="#path-effect20751-9"
         inkscape:original-d="m 59.107474,88.790272 c 1.262144,2.23723 2.523996,4.47415 3.785634,6.710885 2.581428,0.28706 5.162489,0.57384 7.743336,0.86037"
         sodipodi:nodetypes="ccc" />
      <path
         style="fill:none;fill-opacity:1;stroke:#000000;stroke-width:1.922;stroke-linecap:round;stroke-linejoin:round;stroke-dasharray:none;stroke-opacity:1"
         d="m 105.94964,36.716695 c -0.73177,-1.263459 -1.46341,-2.526697 -2.57759,-3.239247 -1.11417,-0.712551 -2.61072,-0.874504 -4.107139,-1.036443"
         id="path20749-6"
         inkscape:path-effect="#path-effect20751-0"
         inkscape:original-d="m 105.94964,36.716695 c -0.73182,-1.26343 -1.46346,-2.52667 -2.19499,-3.78982 -1.49676,-0.16211 -2.99331,-0.32406 -4.489739,-0.48587"
         sodipodi:nodetypes="ccc" />
      <path
         style="fill:none;fill-opacity:1;stroke:#000000;stroke-width:1.756;stroke-linecap:round;stroke-linejoin:round;stroke-opacity:1"
         d="m 111.29702,35.095062 c -1.26206,-2.23728 -2.52392,-4.474197 -4.4455,-5.735952 -1.92159,-1.261755 -4.50266,-1.548541 -7.083469,-1.835298"
         id="path20749-4-5"
         inkscape:path-effect="#path-effect20751-9-6"
         inkscape:original-d="m 111.29702,35.095062 c -1.26215,-2.23723 -2.524,-4.47415 -3.78564,-6.71088 -2.58142,-0.28706 -5.16249,-0.57384 -7.743329,-0.86037"
         sodipodi:nodetypes="ccc" />
    </g>
  </g>
</svg>
